<svg width="860" height="540" viewBox="0 0 860 540" fill="none" xmlns="http://www.w3.org/2000/svg">
<g clip-path="url(#clip0_810_4)">
<rect width="860" height="540" fill="black"/>
<rect width="860" height="540" fill="black"/>
<g opacity="0.3">
<path d="M107.07 -23.781L47.4392 -71.6006L56.6574 -48.2669L124.93 22.8861L184.56 70.7057L175.342 47.372L107.07 -23.781Z" stroke="url(#paint0_linear_810_4)" stroke-width="3.12471" stroke-miterlimit="10"/>
<path d="M107.358 -24.6451L44.2706 -76.4976L52.9127 -52.2997L124.642 24.0387L187.729 75.8912L179.087 51.4053L107.358 -24.6451Z" stroke="url(#paint1_linear_810_4)" stroke-width="3.12471" stroke-miterlimit="10"/>
<path d="M107.646 -25.5091L40.8137 -81.6826L48.8797 -56.6206L124.354 24.9031L191.186 81.0766L183.12 56.0145L107.646 -25.5091Z" stroke="url(#paint2_linear_810_4)" stroke-width="3.12471" stroke-miterlimit="10"/>
<path d="M108.222 -26.3733L37.0693 -87.4441L44.8472 -61.2298L123.778 25.7672L194.931 86.5498L187.153 60.6236L108.222 -26.3733Z" stroke="url(#paint3_linear_810_4)" stroke-width="3.12471" stroke-miterlimit="10"/>
<path d="M109.086 -27.2377L33.6116 -93.2056L40.5253 -66.1271L122.913 26.6313L198.387 92.5992L191.474 65.5207L109.086 -27.2377Z" stroke="url(#paint4_linear_810_4)" stroke-width="3.12471" stroke-miterlimit="10"/>
<path d="M109.951 -28.3898L29.868 -99.2549L36.2056 -71.6002L122.05 27.4956L202.134 98.6488L195.796 70.7061L109.951 -28.3898Z" stroke="url(#paint5_linear_810_4)" stroke-width="3.12471" stroke-miterlimit="10"/>
<path d="M110.814 -29.2541L26.4098 -105.881L31.595 -77.0737L121.185 28.3597L205.589 105.274L200.404 76.4673L110.814 -29.2541Z" stroke="url(#paint6_linear_810_4)" stroke-width="3.12471" stroke-miterlimit="10"/>
<path d="M111.968 -29.8304L22.666 -112.794L26.699 -83.1233L120.033 29.2238L209.335 111.9L205.302 82.2286L111.968 -29.8304Z" stroke="url(#paint7_linear_810_4)" stroke-width="3.12471" stroke-miterlimit="10"/>
<path d="M113.12 -30.695L18.9209 -119.708L21.8016 -89.4612L118.881 30.0876L213.08 119.101L210.199 88.5657L113.12 -30.695Z" stroke="url(#paint8_linear_810_4)" stroke-width="3.12471" stroke-miterlimit="10"/>
<path d="M114.56 -31.5587L15.176 -127.198L16.6164 -96.0862L117.441 30.6643L216.825 126.591L215.384 95.4799L114.56 -31.5587Z" stroke="url(#paint9_linear_810_4)" stroke-width="3.12471" stroke-miterlimit="10"/>
<path d="M116.288 -32.1348L11.719 -134.976L11.4309 -103.288L115.712 31.5285L220.281 134.369L220.569 102.682L116.288 -32.1348Z" stroke="url(#paint10_linear_810_4)" stroke-width="3.12471" stroke-miterlimit="10"/>
<path d="M118.017 -32.7114L7.97448 -143.042L5.95801 -110.778L113.984 32.1042L224.027 142.435L226.043 110.171L118.017 -32.7114Z" stroke="url(#paint11_linear_810_4)" stroke-width="3.12471" stroke-miterlimit="10"/>
<path d="M120.321 -33.2875L4.51733 -151.684L0.196289 -118.844L111.679 32.6804L227.483 151.077L231.804 117.949L120.321 -33.2875Z" stroke="url(#paint12_linear_810_4)" stroke-width="3.12471" stroke-miterlimit="10"/>
<path d="M122.626 -33.5757L1.06091 -160.614L-5.5647 -127.198L109.375 32.9684L230.94 159.719L237.566 126.591L122.626 -33.5757Z" stroke="url(#paint13_linear_810_4)" stroke-width="3.12471" stroke-miterlimit="10"/>
<path d="M125.218 -33.8632L-2.10832 -169.544L-11.6146 -136.128L106.782 33.2569L234.397 168.938L243.615 135.522L125.218 -33.8632Z" stroke="url(#paint14_linear_810_4)" stroke-width="3.12471" stroke-miterlimit="10"/>
<path d="M128.387 -34.1514L-5.27699 -179.338L-17.6639 -145.634L103.613 33.2568L237.277 178.444L249.664 144.74L128.387 -34.1514Z" stroke="url(#paint15_linear_810_4)" stroke-width="3.12471" stroke-miterlimit="10"/>
<path d="M131.556 -34.1514L-8.15814 -189.133L-23.7139 -155.429L100.444 33.2568L240.158 188.526L255.713 154.822L131.556 -34.1514Z" stroke="url(#paint16_linear_810_4)" stroke-width="3.12471" stroke-miterlimit="10"/>
<path d="M135.301 -33.8635L-11.0387 -199.215L-30.0513 -165.799L96.6993 33.2567L243.039 198.608L262.051 165.192L135.301 -33.8635Z" stroke="url(#paint17_linear_810_4)" stroke-width="3.12471" stroke-miterlimit="10"/>
<path d="M139.334 -33.5751L-13.343 -209.874L-36.3885 -176.746L92.6665 32.6809L245.343 209.267L268.677 176.139L139.334 -33.5751Z" stroke="url(#paint18_linear_810_4)" stroke-width="3.12471" stroke-miterlimit="10"/>
<path d="M143.655 -32.711L-15.3595 -220.82L-43.0142 -188.268L88.3455 32.1046L247.36 219.926L275.015 187.662L143.655 -32.711Z" stroke="url(#paint19_linear_810_4)" stroke-width="3.12471" stroke-miterlimit="10"/>
<path d="M148.84 -31.8469L-16.7998 -232.055L-49.3516 -200.368L83.1604 31.2403L248.8 231.16L281.352 199.761L148.84 -31.8469Z" stroke="url(#paint20_linear_810_4)" stroke-width="3.12471" stroke-miterlimit="10"/>
<path d="M154.025 -30.6948L-17.9526 -243.578L-55.9778 -213.043L77.9745 30.0878L249.952 242.683L287.977 212.148L154.025 -30.6948Z" stroke="url(#paint21_linear_810_4)" stroke-width="3.12471" stroke-miterlimit="10"/>
<path d="M160.075 -29.2546L-18.5282 -255.101L-62.6028 -226.294L71.9256 28.6473L250.529 254.494L294.603 225.399L160.075 -29.2546Z" stroke="url(#paint22_linear_810_4)" stroke-width="3.12471" stroke-miterlimit="10"/>
<path d="M166.701 -27.526L-18.2399 -267.2L-68.9401 -240.121L65.3003 26.9192L250.241 266.593L300.941 239.226L166.701 -27.526Z" stroke="url(#paint23_linear_810_4)" stroke-width="3.12471" stroke-miterlimit="10"/>
<path d="M173.614 -25.5097L-17.3757 -279.587L-75.2776 -254.525L58.3866 24.6143L249.377 278.692L307.279 253.63L173.614 -25.5097Z" stroke="url(#paint24_linear_810_4)" stroke-width="3.12471" stroke-miterlimit="10"/>
<path d="M181.392 -22.9168L-15.9358 -291.974L-81.3275 -269.504L50.6083 22.022L247.936 291.367L313.328 268.898L181.392 -22.9168Z" stroke="url(#paint25_linear_810_4)" stroke-width="3.12471" stroke-miterlimit="10"/>
<path d="M190.033 -19.7478L-13.3436 -304.648L-87.3774 -285.06L41.9657 19.1416L245.343 303.754L319.377 284.454L190.033 -19.7478Z" stroke="url(#paint26_linear_810_4)" stroke-width="3.12471" stroke-miterlimit="10"/>
<path d="M199.252 -16.0031L-9.88635 -317.324L-93.1384 -301.48L32.7479 15.3965L241.886 316.429L325.138 300.873L199.252 -16.0031Z" stroke="url(#paint27_linear_810_4)" stroke-width="3.12471" stroke-miterlimit="10"/>
<path d="M209.334 -11.9699L-5.27734 -329.999L-98.6118 -318.188L22.6654 11.3636L237.277 329.392L330.612 317.581L209.334 -11.9699Z" stroke="url(#paint28_linear_810_4)" stroke-width="3.12471" stroke-miterlimit="10"/>
<path d="M220.281 -7.36107L0.483991 -342.674L-103.509 -335.76L11.7187 6.46631L231.516 342.067L335.509 335.154L220.281 -7.36107Z" stroke="url(#paint29_linear_810_4)" stroke-width="3.12471" stroke-miterlimit="10"/>
<path d="M232.092 -1.88745L7.97406 -355.349L-108.118 -353.908L-0.0918893 0.993239L224.026 354.742L340.118 353.302L232.092 -1.88745Z" stroke="url(#paint30_linear_810_4)" stroke-width="3.12471" stroke-miterlimit="10"/>
<path d="M244.767 4.45007L16.6158 -368.024L-112.151 -372.633L-12.7673 -5.05619L215.384 367.129L344.151 372.027L244.767 4.45007Z" stroke="url(#paint31_linear_810_4)" stroke-width="3.12471" stroke-miterlimit="10"/>
<path d="M258.594 11.3635L27.2744 -380.123L-115.32 -391.934L-26.5946 -11.97L204.725 379.516L347.32 391.039L258.594 11.3635Z" stroke="url(#paint32_linear_810_4)" stroke-width="3.12471" stroke-miterlimit="10"/>
<path d="M273.574 19.1414L39.3735 -392.222L-117.912 -411.522L-41.574 -19.748L192.626 391.327L349.912 410.916L273.574 19.1414Z" stroke="url(#paint33_linear_810_4)" stroke-width="3.12471" stroke-miterlimit="10"/>
<path d="M289.706 28.0718L53.7772 -403.744L-119.641 -431.975L-57.7057 -28.6779L178.223 402.85L351.641 431.369L289.706 28.0718Z" stroke="url(#paint34_linear_810_4)" stroke-width="3.12471" stroke-miterlimit="10"/>
<path d="M306.99 37.8659L70.4846 -414.691L-120.505 -452.716L-74.9904 -38.4725L161.515 414.085L352.505 452.11L306.99 37.8659Z" stroke="url(#paint35_linear_810_4)" stroke-width="3.12471" stroke-miterlimit="10"/>
<path d="M325.714 48.8128L89.4975 -425.061L-120.217 -474.033L-93.7147 -49.4189L142.502 424.167L352.217 473.427L325.714 48.8128Z" stroke="url(#paint36_linear_810_4)" stroke-width="3.12471" stroke-miterlimit="10"/>
<path d="M345.879 60.9114L111.391 -434.568L-118.489 -495.639L-113.88 -61.5181L120.609 433.673L350.488 495.032L345.879 60.9114Z" stroke="url(#paint37_linear_810_4)" stroke-width="3.12471" stroke-miterlimit="10"/>
<path d="M367.485 74.1623L136.165 -442.922L-115.319 -517.532L-135.484 -75.0576L95.8355 442.315L347.32 516.925L367.485 74.1623Z" stroke="url(#paint38_linear_810_4)" stroke-width="3.12471" stroke-miterlimit="10"/>
<path d="M390.819 89.142L164.108 -450.412L-110.71 -539.713L-158.818 -89.749L67.8927 449.517L342.711 539.106L390.819 89.142Z" stroke="url(#paint39_linear_810_4)" stroke-width="3.12471" stroke-miterlimit="10"/>
<path d="M415.592 105.562L195.507 -456.173L-104.085 -562.183L-183.593 -106.169L36.4924 455.567L336.085 561.288L415.592 105.562Z" stroke="url(#paint40_linear_810_4)" stroke-width="3.12471" stroke-miterlimit="10"/>
<path d="M442.383 123.422L230.94 -460.782L-95.4427 -584.652L-210.382 -124.317L1.06053 459.887L327.443 583.757L442.383 123.422Z" stroke="url(#paint41_linear_810_4)" stroke-width="3.12471" stroke-miterlimit="10"/>
<path d="M470.902 143.299L270.117 -463.375L-84.7841 -606.833L-238.901 -143.906L-38.1169 462.48L316.785 606.227L470.902 143.299Z" stroke="url(#paint42_linear_810_4)" stroke-width="3.12471" stroke-miterlimit="10"/>
<path d="M501.437 164.905L313.904 -463.951L-71.5333 -629.303L-269.437 -165.799L-81.9038 463.057L303.533 628.408L501.437 164.905Z" stroke="url(#paint43_linear_810_4)" stroke-width="3.12471" stroke-miterlimit="10"/>
<path d="M533.988 188.815L362.587 -462.222L-55.4018 -651.196L-301.989 -189.421L-130.588 461.328L287.401 650.59L533.988 188.815Z" stroke="url(#paint44_linear_810_4)" stroke-width="3.12471" stroke-miterlimit="10"/>
<path d="M568.845 214.74L416.457 -457.614L-36.3885 -672.802L-336.845 -215.348L-184.456 457.006L268.389 671.906L568.845 214.74Z" stroke="url(#paint45_linear_810_4)" stroke-width="3.12471" stroke-miterlimit="10"/>
<path d="M606.005 242.971L476.086 -450.412L-13.9201 -693.542L-374.007 -243.578L-244.088 449.805L245.919 692.936L606.005 242.971Z" stroke="url(#paint46_linear_810_4)" stroke-width="3.12471" stroke-miterlimit="10"/>
<path d="M645.472 273.795L541.767 -439.753L12.007 -713.707L-413.472 -274.401L-309.767 438.859L219.993 713.101L645.472 273.795Z" stroke="url(#paint47_linear_810_4)" stroke-width="3.12471" stroke-miterlimit="10"/>
<path d="M687.818 307.211L613.784 -425.35L42.2546 -732.72L-455.817 -307.817L-381.784 424.743L189.746 732.113L687.818 307.211Z" stroke="url(#paint48_linear_810_4)" stroke-width="3.12471" stroke-miterlimit="10"/>
<path d="M732.468 343.508L693.003 -406.913L76.5342 -750.58L-500.469 -344.114L-461.003 406.019L155.465 749.973L732.468 343.508Z" stroke="url(#paint49_linear_810_4)" stroke-width="3.12471" stroke-miterlimit="10"/>
<path d="M780 382.973V-383.58L116 -767L-548 -383.58V382.973L116 766.394L780 382.973Z" stroke="url(#paint50_linear_810_4)" stroke-width="3.12471" stroke-miterlimit="10"/>
</g>
<path d="M83.256 273V256.2H85.824L93.168 268.464H91.824L99.048 256.2H101.616L101.64 273H98.688L98.664 260.832H99.288L93.144 271.08H91.752L85.512 260.832H86.232V273H83.256ZM106.178 273V256.2H113.09C114.578 256.2 115.85 256.44 116.906 256.92C117.978 257.4 118.802 258.088 119.378 258.984C119.954 259.88 120.242 260.944 120.242 262.176C120.242 263.408 119.954 264.472 119.378 265.368C118.802 266.248 117.978 266.928 116.906 267.408C115.85 267.872 114.578 268.104 113.09 268.104H107.906L109.298 266.688V273H106.178ZM117.17 273L112.922 266.904H116.258L120.53 273H117.17ZM109.298 267.024L107.906 265.536H112.946C114.322 265.536 115.354 265.24 116.042 264.648C116.746 264.056 117.098 263.232 117.098 262.176C117.098 261.104 116.746 260.28 116.042 259.704C115.354 259.128 114.322 258.84 112.946 258.84H107.906L109.298 257.304V267.024ZM126.906 273V258.84H121.338V256.2H135.594V258.84H130.026V273H126.906ZM152.345 273.24C151.065 273.24 149.873 273.032 148.769 272.616C147.681 272.184 146.729 271.584 145.913 270.816C145.113 270.032 144.489 269.112 144.041 268.056C143.593 267 143.369 265.848 143.369 264.6C143.369 263.352 143.593 262.2 144.041 261.144C144.489 260.088 145.121 259.176 145.937 258.408C146.753 257.624 147.705 257.024 148.793 256.608C149.881 256.176 151.073 255.96 152.369 255.96C153.745 255.96 155.001 256.2 156.137 256.68C157.273 257.144 158.233 257.84 159.017 258.768L157.001 260.664C156.393 260.008 155.713 259.52 154.961 259.2C154.209 258.864 153.393 258.696 152.513 258.696C151.633 258.696 150.825 258.84 150.089 259.128C149.369 259.416 148.737 259.824 148.193 260.352C147.665 260.88 147.249 261.504 146.945 262.224C146.657 262.944 146.513 263.736 146.513 264.6C146.513 265.464 146.657 266.256 146.945 266.976C147.249 267.696 147.665 268.32 148.193 268.848C148.737 269.376 149.369 269.784 150.089 270.072C150.825 270.36 151.633 270.504 152.513 270.504C153.393 270.504 154.209 270.344 154.961 270.024C155.713 269.688 156.393 269.184 157.001 268.512L159.017 270.432C158.233 271.344 157.273 272.04 156.137 272.52C155.001 273 153.737 273.24 152.345 273.24ZM159.278 273L166.838 256.2H169.91L177.494 273H174.23L167.726 257.856H168.974L162.494 273H159.278ZM162.758 269.112L163.598 266.664H172.67L173.51 269.112H162.758ZM179.631 273V256.2H186.543C188.031 256.2 189.303 256.44 190.359 256.92C191.431 257.4 192.255 258.088 192.831 258.984C193.407 259.88 193.695 260.944 193.695 262.176C193.695 263.408 193.407 264.472 192.831 265.368C192.255 266.248 191.431 266.928 190.359 267.408C189.303 267.872 188.031 268.104 186.543 268.104H181.359L182.751 266.688V273H179.631ZM190.623 273L186.375 266.904H189.711L193.983 273H190.623ZM182.751 267.024L181.359 265.536H186.399C187.775 265.536 188.807 265.24 189.495 264.648C190.199 264.056 190.551 263.232 190.551 262.176C190.551 261.104 190.199 260.28 189.495 259.704C188.807 259.128 187.775 258.84 186.399 258.84H181.359L182.751 257.304V267.024ZM197.186 273V256.2H204.53C206.354 256.2 207.954 256.552 209.33 257.256C210.706 257.96 211.778 258.936 212.546 260.184C213.314 261.432 213.698 262.904 213.698 264.6C213.698 266.28 213.314 267.752 212.546 269.016C211.778 270.264 210.706 271.24 209.33 271.944C207.954 272.648 206.354 273 204.53 273H197.186ZM200.306 270.36H204.386C205.65 270.36 206.738 270.12 207.65 269.64C208.578 269.16 209.29 268.488 209.786 267.624C210.298 266.76 210.554 265.752 210.554 264.6C210.554 263.432 210.298 262.424 209.786 261.576C209.29 260.712 208.578 260.04 207.65 259.56C206.738 259.08 205.65 258.84 204.386 258.84H200.306V270.36Z" fill="#FAFAFA"/>
<path d="M721.6 112.6C722.4 113.6 723 114.8 723.4 116C723.8 117.2 724 118.6 724 120C724 121.4 723.8 122.8 723.4 124C723 125.2 722.4 126.4 721.6 127.4C720.6 128.8 720.8 130.8 722.2 131.8C723.6 132.8 725.6 132.6 726.6 131.2C727.8 129.6 728.6 128 729.4 126C730.2 124 730.4 122 730.4 120C730.4 118 730 116 729.4 114C728.8 112.2 727.8 110.4 726.6 108.8C725.6 107.4 723.6 107.2 722.2 108.2C720.8 109.2 720.6 111.2 721.6 112.6Z" fill="url(#paint51_angular_810_4)"/>
<path d="M732.6 106.8C735 110.6 736.4 115.2 736.4 120C736.4 124.8 735 129.4 732.6 133.2C731.6 134.6 732.2 136.6 733.6 137.6C735.2 138.6 737 138 738 136.6C741 131.8 742.8 126.2 742.8 120C742.8 114 741 108.2 738 103.4C737 102 735 101.4 733.6 102.4C732.2 103.4 731.6 105.2 732.6 106.8Z" fill="url(#paint52_angular_810_4)"/>
<path d="M744.2 100.8C747.6 106.4 749.4 113 749.4 120C749.4 127 747.4 133.6 744.2 139.2C743.4 140.8 743.8 142.6 745.4 143.6C747 144.4 748.8 144 749.8 142.4C753.8 135.8 756 128.2 756 120C756 111.8 753.8 104.2 749.8 97.6C749 96 747 95.6 745.4 96.4C743.8 97.4 743.4 99.2 744.2 100.8Z" fill="url(#paint53_angular_810_4)"/>
<path d="M755.8 94.8C760 102.2 762.6 110.8 762.6 120C762.6 129.2 760.2 137.8 755.8 145.2C755 146.8 755.4 148.6 757 149.6C758.6 150.4 760.4 150 761.4 148.4C766.2 140 769 130.4 769 120C769 109.6 766.2 100 761.4 91.6C760.6 90 758.6 89.6 757 90.4C755.4 91.2 755 93.2 755.8 94.8Z" fill="url(#paint54_angular_810_4)"/>
<g filter="url(#filter0_b_810_4)">
<ellipse cx="722.239" cy="226.254" rx="37.3134" ry="37.3134" fill="#FAFAFA" fill-opacity="0.3"/>
</g>
<g filter="url(#filter1_b_810_4)">
<path d="M805.821 226.254C805.821 246.861 789.115 263.567 768.508 263.567C747.9 263.567 731.194 246.861 731.194 226.254C731.194 205.646 747.9 188.94 768.508 188.94C789.115 188.94 805.821 205.646 805.821 226.254Z" fill="#FAFAFA" fill-opacity="0.7"/>
</g>
<g filter="url(#filter2_b_810_4)">
<path d="M745.373 196.976C736.736 203.81 731.194 214.385 731.194 226.254C731.194 238.123 736.736 248.698 745.373 255.532C754.011 248.698 759.553 238.123 759.553 226.254C759.553 214.385 754.011 203.81 745.373 196.976Z" fill="#FAFAFA" fill-opacity="0.6"/>
</g>
<g filter="url(#filter3_f_810_4)">
<circle cx="144.886" cy="142.209" r="55.8855" transform="rotate(180 144.886 142.209)" fill="url(#paint55_angular_810_4)"/>
</g>
<circle cx="144.886" cy="141.885" r="55.8855" transform="rotate(180 144.886 141.885)" fill="url(#paint56_angular_810_4)"/>
<g filter="url(#filter4_b_810_4)">
<path d="M89.0001 118C89.0001 109.163 96.1636 102 105 102H185C193.837 102 201 109.163 201 118V166C201 174.837 193.837 182 185 182H105C96.1636 182 89.0001 174.837 89.0001 166V118Z" fill="white" fill-opacity="0.3"/>
<path d="M105 103H185C193.284 103 200 109.716 200 118V166C200 174.284 193.284 181 185 181H105C96.7159 181 90.0001 174.284 90.0001 166V118C90.0001 109.716 96.7159 103 105 103Z" stroke="white" stroke-opacity="0.3" stroke-width="2"/>
</g>
<path d="M116 105H118V181H116V157H91.0001V155H116V131H91.0001V129H116V105Z" fill="white" fill-opacity="0.3"/>
<path d="M173 155H199V157H173V181H171V141C171 134.373 176.373 129 183 129H199V131H183C177.477 131 173 135.477 173 141V155Z" fill="white" fill-opacity="0.3"/>
<path d="M173 105H171V121H173V105Z" fill="white" fill-opacity="0.3"/>
<path fill-rule="evenodd" clip-rule="evenodd" d="M159 143C159 150.732 152.732 157 145 157C137.268 157 131 150.732 131 143C131 135.268 137.268 129 145 129C152.732 129 159 135.268 159 143ZM157 143C157 149.627 151.628 155 145 155C138.373 155 133 149.627 133 143C133 136.373 138.373 131 145 131C151.628 131 157 136.373 157 143Z" fill="white" fill-opacity="0.3"/>
<path d="M75.6491 141.947C75.6491 103.675 106.675 72.6487 144.947 72.6487C183.219 72.6487 214.245 103.674 214.245 141.947C214.245 180.219 183.219 211.245 144.947 211.245C106.675 211.245 75.6491 180.219 75.6491 141.947Z" stroke="#F2A8BF" stroke-width="2.23542"/>
<path opacity="0.5" d="M58.8834 141.947C58.8834 94.4155 97.4154 55.8835 144.947 55.8835C192.479 55.8835 231.011 94.4155 231.011 141.947C231.011 189.479 192.479 228.011 144.947 228.011C97.4155 228.011 58.8834 189.479 58.8834 141.947Z" stroke="#ED8CF9" stroke-width="2.23542"/>
<circle opacity="0.2" cx="144.947" cy="141.947" r="102.829" transform="rotate(180 144.947 141.947)" stroke="#A893F8" stroke-width="2.23542"/>
</g>
<rect x="2.5" y="2.5" width="855" height="535" rx="37.5" stroke="url(#paint57_linear_810_4)" stroke-width="5"/>
<defs>
<filter id="filter0_b_810_4" x="634.925" y="138.94" width="174.627" height="174.627" filterUnits="userSpaceOnUse" color-interpolation-filters="sRGB">
<feFlood flood-opacity="0" result="BackgroundImageFix"/>
<feGaussianBlur in="BackgroundImageFix" stdDeviation="25"/>
<feComposite in2="SourceAlpha" operator="in" result="effect1_backgroundBlur_810_4"/>
<feBlend mode="normal" in="SourceGraphic" in2="effect1_backgroundBlur_810_4" result="shape"/>
</filter>
<filter id="filter1_b_810_4" x="681.194" y="138.94" width="174.627" height="174.627" filterUnits="userSpaceOnUse" color-interpolation-filters="sRGB">
<feFlood flood-opacity="0" result="BackgroundImageFix"/>
<feGaussianBlur in="BackgroundImageFix" stdDeviation="25"/>
<feComposite in2="SourceAlpha" operator="in" result="effect1_backgroundBlur_810_4"/>
<feBlend mode="normal" in="SourceGraphic" in2="effect1_backgroundBlur_810_4" result="shape"/>
</filter>
<filter id="filter2_b_810_4" x="681.194" y="146.976" width="128.358" height="158.556" filterUnits="userSpaceOnUse" color-interpolation-filters="sRGB">
<feFlood flood-opacity="0" result="BackgroundImageFix"/>
<feGaussianBlur in="BackgroundImageFix" stdDeviation="25"/>
<feComposite in2="SourceAlpha" operator="in" result="effect1_backgroundBlur_810_4"/>
<feBlend mode="normal" in="SourceGraphic" in2="effect1_backgroundBlur_810_4" result="shape"/>
</filter>
<filter id="filter3_f_810_4" x="21.9374" y="19.2606" width="245.896" height="245.896" filterUnits="userSpaceOnUse" color-interpolation-filters="sRGB">
<feFlood flood-opacity="0" result="BackgroundImageFix"/>
<feBlend mode="normal" in="SourceGraphic" in2="BackgroundImageFix" result="shape"/>
<feGaussianBlur stdDeviation="33.5313" result="effect1_foregroundBlur_810_4"/>
</filter>
<filter id="filter4_b_810_4" x="64.0001" y="77" width="162" height="130" filterUnits="userSpaceOnUse" color-interpolation-filters="sRGB">
<feFlood flood-opacity="0" result="BackgroundImageFix"/>
<feGaussianBlur in="BackgroundImageFix" stdDeviation="12.5"/>
<feComposite in2="SourceAlpha" operator="in" result="effect1_backgroundBlur_810_4"/>
<feBlend mode="normal" in="SourceGraphic" in2="effect1_backgroundBlur_810_4" result="shape"/>
</filter>
<linearGradient id="paint0_linear_810_4" x1="116" y1="-71.6006" x2="116" y2="70.7057" gradientUnits="userSpaceOnUse">
<stop stop-color="#00FFCA"/>
<stop offset="1" stop-color="#EE3E41"/>
</linearGradient>
<linearGradient id="paint1_linear_810_4" x1="116" y1="-76.4976" x2="116" y2="75.8912" gradientUnits="userSpaceOnUse">
<stop stop-color="#00FFCA"/>
<stop offset="1" stop-color="#EE3E41"/>
</linearGradient>
<linearGradient id="paint2_linear_810_4" x1="116" y1="-81.6826" x2="116" y2="81.0766" gradientUnits="userSpaceOnUse">
<stop stop-color="#00FFCA"/>
<stop offset="1" stop-color="#EE3E41"/>
</linearGradient>
<linearGradient id="paint3_linear_810_4" x1="116" y1="-87.4441" x2="116" y2="86.5498" gradientUnits="userSpaceOnUse">
<stop stop-color="#00FFCA"/>
<stop offset="1" stop-color="#EE3E41"/>
</linearGradient>
<linearGradient id="paint4_linear_810_4" x1="115.999" y1="-93.2056" x2="115.999" y2="92.5992" gradientUnits="userSpaceOnUse">
<stop stop-color="#00FFCA"/>
<stop offset="1" stop-color="#EE3E41"/>
</linearGradient>
<linearGradient id="paint5_linear_810_4" x1="116.001" y1="-99.2549" x2="116.001" y2="98.6488" gradientUnits="userSpaceOnUse">
<stop stop-color="#00FFCA"/>
<stop offset="1" stop-color="#EE3E41"/>
</linearGradient>
<linearGradient id="paint6_linear_810_4" x1="115.999" y1="-105.881" x2="115.999" y2="105.274" gradientUnits="userSpaceOnUse">
<stop stop-color="#00FFCA"/>
<stop offset="1" stop-color="#EE3E41"/>
</linearGradient>
<linearGradient id="paint7_linear_810_4" x1="116" y1="-112.794" x2="116" y2="111.9" gradientUnits="userSpaceOnUse">
<stop stop-color="#00FFCA"/>
<stop offset="1" stop-color="#EE3E41"/>
</linearGradient>
<linearGradient id="paint8_linear_810_4" x1="116" y1="-119.708" x2="116" y2="119.101" gradientUnits="userSpaceOnUse">
<stop stop-color="#00FFCA"/>
<stop offset="1" stop-color="#EE3E41"/>
</linearGradient>
<linearGradient id="paint9_linear_810_4" x1="116" y1="-127.198" x2="116" y2="126.591" gradientUnits="userSpaceOnUse">
<stop stop-color="#00FFCA"/>
<stop offset="1" stop-color="#EE3E41"/>
</linearGradient>
<linearGradient id="paint10_linear_810_4" x1="116" y1="-134.976" x2="116" y2="134.369" gradientUnits="userSpaceOnUse">
<stop stop-color="#00FFCA"/>
<stop offset="1" stop-color="#EE3E41"/>
</linearGradient>
<linearGradient id="paint11_linear_810_4" x1="116.001" y1="-143.042" x2="116.001" y2="142.435" gradientUnits="userSpaceOnUse">
<stop stop-color="#00FFCA"/>
<stop offset="1" stop-color="#EE3E41"/>
</linearGradient>
<linearGradient id="paint12_linear_810_4" x1="116" y1="-151.684" x2="116" y2="151.077" gradientUnits="userSpaceOnUse">
<stop stop-color="#00FFCA"/>
<stop offset="1" stop-color="#EE3E41"/>
</linearGradient>
<linearGradient id="paint13_linear_810_4" x1="116.001" y1="-160.614" x2="116.001" y2="159.719" gradientUnits="userSpaceOnUse">
<stop stop-color="#00FFCA"/>
<stop offset="1" stop-color="#EE3E41"/>
</linearGradient>
<linearGradient id="paint14_linear_810_4" x1="116" y1="-169.544" x2="116" y2="168.938" gradientUnits="userSpaceOnUse">
<stop stop-color="#00FFCA"/>
<stop offset="1" stop-color="#EE3E41"/>
</linearGradient>
<linearGradient id="paint15_linear_810_4" x1="116" y1="-179.338" x2="116" y2="178.444" gradientUnits="userSpaceOnUse">
<stop stop-color="#00FFCA"/>
<stop offset="1" stop-color="#EE3E41"/>
</linearGradient>
<linearGradient id="paint16_linear_810_4" x1="116" y1="-189.133" x2="116" y2="188.526" gradientUnits="userSpaceOnUse">
<stop stop-color="#00FFCA"/>
<stop offset="1" stop-color="#EE3E41"/>
</linearGradient>
<linearGradient id="paint17_linear_810_4" x1="116" y1="-199.215" x2="116" y2="198.608" gradientUnits="userSpaceOnUse">
<stop stop-color="#00FFCA"/>
<stop offset="1" stop-color="#EE3E41"/>
</linearGradient>
<linearGradient id="paint18_linear_810_4" x1="116.144" y1="-209.874" x2="116.144" y2="209.267" gradientUnits="userSpaceOnUse">
<stop stop-color="#00FFCA"/>
<stop offset="1" stop-color="#EE3E41"/>
</linearGradient>
<linearGradient id="paint19_linear_810_4" x1="116" y1="-220.82" x2="116" y2="219.926" gradientUnits="userSpaceOnUse">
<stop stop-color="#00FFCA"/>
<stop offset="1" stop-color="#EE3E41"/>
</linearGradient>
<linearGradient id="paint20_linear_810_4" x1="116" y1="-232.055" x2="116" y2="231.16" gradientUnits="userSpaceOnUse">
<stop stop-color="#00FFCA"/>
<stop offset="1" stop-color="#EE3E41"/>
</linearGradient>
<linearGradient id="paint21_linear_810_4" x1="116" y1="-243.578" x2="116" y2="242.683" gradientUnits="userSpaceOnUse">
<stop stop-color="#00FFCA"/>
<stop offset="1" stop-color="#EE3E41"/>
</linearGradient>
<linearGradient id="paint22_linear_810_4" x1="116" y1="-255.101" x2="116" y2="254.494" gradientUnits="userSpaceOnUse">
<stop stop-color="#00FFCA"/>
<stop offset="1" stop-color="#EE3E41"/>
</linearGradient>
<linearGradient id="paint23_linear_810_4" x1="116.001" y1="-267.2" x2="116.001" y2="266.593" gradientUnits="userSpaceOnUse">
<stop stop-color="#00FFCA"/>
<stop offset="1" stop-color="#EE3E41"/>
</linearGradient>
<linearGradient id="paint24_linear_810_4" x1="116" y1="-279.587" x2="116" y2="278.692" gradientUnits="userSpaceOnUse">
<stop stop-color="#00FFCA"/>
<stop offset="1" stop-color="#EE3E41"/>
</linearGradient>
<linearGradient id="paint25_linear_810_4" x1="116" y1="-291.974" x2="116" y2="291.367" gradientUnits="userSpaceOnUse">
<stop stop-color="#00FFCA"/>
<stop offset="1" stop-color="#EE3E41"/>
</linearGradient>
<linearGradient id="paint26_linear_810_4" x1="116" y1="-304.648" x2="116" y2="303.754" gradientUnits="userSpaceOnUse">
<stop stop-color="#00FFCA"/>
<stop offset="1" stop-color="#EE3E41"/>
</linearGradient>
<linearGradient id="paint27_linear_810_4" x1="116" y1="-317.324" x2="116" y2="316.429" gradientUnits="userSpaceOnUse">
<stop stop-color="#00FFCA"/>
<stop offset="1" stop-color="#EE3E41"/>
</linearGradient>
<linearGradient id="paint28_linear_810_4" x1="116" y1="-329.999" x2="116" y2="329.392" gradientUnits="userSpaceOnUse">
<stop stop-color="#00FFCA"/>
<stop offset="1" stop-color="#EE3E41"/>
</linearGradient>
<linearGradient id="paint29_linear_810_4" x1="116" y1="-342.674" x2="116" y2="342.067" gradientUnits="userSpaceOnUse">
<stop stop-color="#00FFCA"/>
<stop offset="1" stop-color="#EE3E41"/>
</linearGradient>
<linearGradient id="paint30_linear_810_4" x1="116" y1="-355.349" x2="116" y2="354.742" gradientUnits="userSpaceOnUse">
<stop stop-color="#00FFCA"/>
<stop offset="1" stop-color="#EE3E41"/>
</linearGradient>
<linearGradient id="paint31_linear_810_4" x1="116" y1="-372.633" x2="116" y2="372.027" gradientUnits="userSpaceOnUse">
<stop stop-color="#00FFCA"/>
<stop offset="1" stop-color="#EE3E41"/>
</linearGradient>
<linearGradient id="paint32_linear_810_4" x1="116" y1="-391.934" x2="116" y2="391.039" gradientUnits="userSpaceOnUse">
<stop stop-color="#00FFCA"/>
<stop offset="1" stop-color="#EE3E41"/>
</linearGradient>
<linearGradient id="paint33_linear_810_4" x1="116" y1="-411.522" x2="116" y2="410.916" gradientUnits="userSpaceOnUse">
<stop stop-color="#00FFCA"/>
<stop offset="1" stop-color="#EE3E41"/>
</linearGradient>
<linearGradient id="paint34_linear_810_4" x1="116" y1="-431.975" x2="116" y2="431.369" gradientUnits="userSpaceOnUse">
<stop stop-color="#00FFCA"/>
<stop offset="1" stop-color="#EE3E41"/>
</linearGradient>
<linearGradient id="paint35_linear_810_4" x1="116" y1="-452.716" x2="116" y2="452.11" gradientUnits="userSpaceOnUse">
<stop stop-color="#00FFCA"/>
<stop offset="1" stop-color="#EE3E41"/>
</linearGradient>
<linearGradient id="paint36_linear_810_4" x1="116" y1="-474.033" x2="116" y2="473.427" gradientUnits="userSpaceOnUse">
<stop stop-color="#00FFCA"/>
<stop offset="1" stop-color="#EE3E41"/>
</linearGradient>
<linearGradient id="paint37_linear_810_4" x1="116" y1="-495.639" x2="116" y2="495.032" gradientUnits="userSpaceOnUse">
<stop stop-color="#00FFCA"/>
<stop offset="1" stop-color="#EE3E41"/>
</linearGradient>
<linearGradient id="paint38_linear_810_4" x1="116" y1="-517.532" x2="116" y2="516.925" gradientUnits="userSpaceOnUse">
<stop stop-color="#00FFCA"/>
<stop offset="1" stop-color="#EE3E41"/>
</linearGradient>
<linearGradient id="paint39_linear_810_4" x1="116" y1="-539.713" x2="116" y2="539.106" gradientUnits="userSpaceOnUse">
<stop stop-color="#00FFCA"/>
<stop offset="1" stop-color="#EE3E41"/>
</linearGradient>
<linearGradient id="paint40_linear_810_4" x1="116" y1="-562.183" x2="116" y2="561.288" gradientUnits="userSpaceOnUse">
<stop stop-color="#00FFCA"/>
<stop offset="1" stop-color="#EE3E41"/>
</linearGradient>
<linearGradient id="paint41_linear_810_4" x1="116" y1="-584.652" x2="116" y2="583.757" gradientUnits="userSpaceOnUse">
<stop stop-color="#00FFCA"/>
<stop offset="1" stop-color="#EE3E41"/>
</linearGradient>
<linearGradient id="paint42_linear_810_4" x1="116" y1="-606.833" x2="116" y2="606.227" gradientUnits="userSpaceOnUse">
<stop stop-color="#00FFCA"/>
<stop offset="1" stop-color="#EE3E41"/>
</linearGradient>
<linearGradient id="paint43_linear_810_4" x1="116" y1="-629.303" x2="116" y2="628.408" gradientUnits="userSpaceOnUse">
<stop stop-color="#00FFCA"/>
<stop offset="1" stop-color="#EE3E41"/>
</linearGradient>
<linearGradient id="paint44_linear_810_4" x1="116" y1="-651.196" x2="116" y2="650.59" gradientUnits="userSpaceOnUse">
<stop stop-color="#00FFCA"/>
<stop offset="1" stop-color="#EE3E41"/>
</linearGradient>
<linearGradient id="paint45_linear_810_4" x1="116" y1="-672.802" x2="116" y2="671.906" gradientUnits="userSpaceOnUse">
<stop stop-color="#00FFCA"/>
<stop offset="1" stop-color="#EE3E41"/>
</linearGradient>
<linearGradient id="paint46_linear_810_4" x1="115.999" y1="-693.542" x2="115.999" y2="692.936" gradientUnits="userSpaceOnUse">
<stop stop-color="#00FFCA"/>
<stop offset="1" stop-color="#EE3E41"/>
</linearGradient>
<linearGradient id="paint47_linear_810_4" x1="116" y1="-713.707" x2="116" y2="713.101" gradientUnits="userSpaceOnUse">
<stop stop-color="#00FFCA"/>
<stop offset="1" stop-color="#EE3E41"/>
</linearGradient>
<linearGradient id="paint48_linear_810_4" x1="116" y1="-732.72" x2="116" y2="732.113" gradientUnits="userSpaceOnUse">
<stop stop-color="#00FFCA"/>
<stop offset="1" stop-color="#EE3E41"/>
</linearGradient>
<linearGradient id="paint49_linear_810_4" x1="116" y1="-750.58" x2="116" y2="749.974" gradientUnits="userSpaceOnUse">
<stop stop-color="#00FFCA"/>
<stop offset="1" stop-color="#EE3E41"/>
</linearGradient>
<linearGradient id="paint50_linear_810_4" x1="116" y1="-767" x2="116" y2="766.394" gradientUnits="userSpaceOnUse">
<stop stop-color="#00FFCA"/>
<stop offset="1" stop-color="#EE3E41"/>
</linearGradient>
<radialGradient id="paint51_angular_810_4" cx="0" cy="0" r="1" gradientUnits="userSpaceOnUse" gradientTransform="translate(744.988 120) rotate(90) scale(30 24.0125)">
<stop stop-color="#EC8AFF"/>
<stop offset="0.5" stop-color="#F5A9BD"/>
<stop offset="1" stop-color="#A492FC"/>
</radialGradient>
<radialGradient id="paint52_angular_810_4" cx="0" cy="0" r="1" gradientUnits="userSpaceOnUse" gradientTransform="translate(744.988 120) rotate(90) scale(30 24.0125)">
<stop stop-color="#EC8AFF"/>
<stop offset="0.5" stop-color="#F5A9BD"/>
<stop offset="1" stop-color="#A492FC"/>
</radialGradient>
<radialGradient id="paint53_angular_810_4" cx="0" cy="0" r="1" gradientUnits="userSpaceOnUse" gradientTransform="translate(744.988 120) rotate(90) scale(30 24.0125)">
<stop stop-color="#EC8AFF"/>
<stop offset="0.5" stop-color="#F5A9BD"/>
<stop offset="1" stop-color="#A492FC"/>
</radialGradient>
<radialGradient id="paint54_angular_810_4" cx="0" cy="0" r="1" gradientUnits="userSpaceOnUse" gradientTransform="translate(744.988 120) rotate(90) scale(30 24.0125)">
<stop stop-color="#EC8AFF"/>
<stop offset="0.5" stop-color="#F5A9BD"/>
<stop offset="1" stop-color="#A492FC"/>
</radialGradient>
<radialGradient id="paint55_angular_810_4" cx="0" cy="0" r="1" gradientUnits="userSpaceOnUse" gradientTransform="translate(144.886 142.209) rotate(90) scale(55.8855)">
<stop stop-color="#F5A9BD"/>
<stop offset="0.5" stop-color="#EC8AFF"/>
<stop offset="1" stop-color="#A492FC"/>
</radialGradient>
<radialGradient id="paint56_angular_810_4" cx="0" cy="0" r="1" gradientUnits="userSpaceOnUse" gradientTransform="translate(144.886 141.885) rotate(90) scale(55.8855)">
<stop stop-color="#EC8AFF"/>
<stop offset="0.5" stop-color="#F5A9BD"/>
<stop offset="1" stop-color="#A492FC"/>
</radialGradient>
<linearGradient id="paint57_linear_810_4" x1="-6.4075e-06" y1="270" x2="860" y2="270" gradientUnits="userSpaceOnUse">
<stop stop-color="white" stop-opacity="0.8"/>
<stop offset="1" stop-color="white" stop-opacity="0.1"/>
</linearGradient>
<clipPath id="clip0_810_4">
<rect width="860" height="540" rx="40" fill="white"/>
</clipPath>
</defs>
</svg>
